PathFileType	4	(X/Y/Z)	E:\MaartenAfschrift\ProcessCardiffData\Gait_Perturbation\osimData\Patient13\Static.trc
DataRate	CameraRate	NumFrames	NumMarkers	Units	OrigDataRate	OrigDataStartFrame	OrigNumFrames
200.000000	200.000000	8	57	m	200.000000	597	954
Frame#	Times	LFHD			RFHD			LBHD			RBHD			C7			CLAV			LSHO			LUA1			LELB			LLA1			LWRA			LWRB			LFIN			RSHO			RUA1			RELB			RLA1			RWRA			RWRB			RFIN			LASI			RASI			RPSI			LPSI			LTHI			LTHI2			LTHI3			LKNE			LKNEmed			LTIB			LTIB2			LTIB3			LANK			LANKmed			LHEE			LTOE			LLatFoot			RTHI			RTHI2			RTHI3			RKNE			RKNEmed			RTIB			RTIB2			RTIB3			RANK			RANKmed			RHEE			RTOE			RLatFoot			Unlabeled50			Unlabeled51			Unlabeled52			*53			*54			*55			*56
		X1	Y1	Z1	X2	Y2	Z2	X3	Y3	Z3	X4	Y4	Z4	X5	Y5	Z5	X6	Y6	Z6	X7	Y7	Z7	X8	Y8	Z8	X9	Y9	Z9	X10	Y10	Z10	X11	Y11	Z11	X12	Y12	Z12	X13	Y13	Z13	X14	Y14	Z14	X15	Y15	Z15	X16	Y16	Z16	X17	Y17	Z17	X18	Y18	Z18	X19	Y19	Z19	X20	Y20	Z20	X21	Y21	Z21	X22	Y22	Z22	X23	Y23	Z23	X24	Y24	Z24	X25	Y25	Z25	X26	Y26	Z26	X27	Y27	Z27	X28	Y28	Z28	X29	Y29	Z29	X30	Y30	Z30	X31	Y31	Z31	X32	Y32	Z32	X33	Y33	Z33	X34	Y34	Z34	X35	Y35	Z35	X36	Y36	Z36	X37	Y37	Z37	X38	Y38	Z38	X39	Y39	Z39	X40	Y40	Z40	X41	Y41	Z41	X42	Y42	Z42	X43	Y43	Z43	X44	Y44	Z44	X45	Y45	Z45	X46	Y46	Z46	X47	Y47	Z47	X48	Y48	Z48	X49	Y49	Z49	X50	Y50	Z50	X51	Y51	Z51	X52	Y52	Z52	X53	Y53	Z53	X54	Y54	Z54	X55	Y55	Z55	X56	Y56	Z56	X57	Y57	Z57

597	2.985	0.34707	1.6878	-0.10349	0.37647	1.6901	0.031646	0.1929	1.6817	-0.082977	0.24108	1.6898	0.068757	0.15963	1.5725	-0.027099	0.2882	1.4356	-0.0056638	0.19767	1.4872	-0.22383	0.20027	1.3218	-0.27557	0.24849	1.1484	-0.28586	0.28262	1.0093	-0.25978	0.2941	0.87339	-0.19231	0.24993	0.86482	-0.25457	0.30711	0.81334	-0.22876	0.17195	1.488	0.20308	0.18737	1.2391	0.26459	0.21456	1.1582	0.27753	0.24861	1.0039	0.27151	0.2809	0.88396	0.20469	0.23914	0.86835	0.26508	0.28696	0.82972	0.25551	0.29489	1.0358	-0.12061	0.27235	1.0473	0.13738	0.079265	1.0628	0.027758	0.08862	1.0623	-0.044933	0.19639	0.64113	-0.17936	0.13506	0.64549	-0.1714	0.16545	0.60321	-0.17848	0.18893	0.52919	-0.16869	0.20011	0.51731	-0.062314	0.14022	0.30152	-0.19324	0.086719	0.30838	-0.18492	0.10875	0.25743	-0.18681	0.10093	0.1025	-0.18668	0.13278	0.10049	-0.10114	0.036924	0.048957	-0.12342	0.26459	0.064397	-0.16595	0.16442	0.023837	-0.23116	0.21149	0.74047	0.19403	0.133	0.74513	0.18127	0.1692	0.69652	0.19077	0.18481	0.54139	0.17409	0.19712	0.51913	0.066459	0.13112	0.3411	0.19855	0.071992	0.34341	0.18083	0.099822	0.29499	0.18824	0.09439	0.1047	0.17943	0.13766	0.1097	0.099204	0.035507	0.055208	0.11781	0.26247	0.064156	0.16968	0.14615	0.034959	0.22498	0.48795	0.032047	-0.6198	-0.4629	0.021584	0.62723	0.5142	0.040607	0.61599	0	0	0	0	0	0	0	0	0	0	0	0
598	2.99	0.3467	1.6878	-0.1034	0.37608	1.6901	0.031717	0.19255	1.6817	-0.082889	0.2407	1.6898	0.068826	0.15922	1.5726	-0.026921	0.28783	1.4356	-0.0056003	0.19732	1.4873	-0.22381	0.19991	1.3218	-0.27551	0.24814	1.1484	-0.28583	0.28231	1.0093	-0.25973	0.29379	0.87341	-0.19226	0.24965	0.86483	-0.25451	0.30678	0.81336	-0.22874	0.17159	1.488	0.20311	0.18702	1.2392	0.26462	0.21422	1.1582	0.27756	0.24828	1.004	0.27157	0.2806	0.88398	0.20471	0.23883	0.86836	0.2651	0.28669	0.82974	0.25557	0.29458	1.0358	-0.12054	0.27201	1.0473	0.13744	0.078929	1.0628	0.02779	0.088206	1.0623	-0.044897	0.19612	0.64115	-0.17932	0.1348	0.64551	-0.17136	0.16521	0.60322	-0.17846	0.1887	0.5292	-0.16865	0.1999	0.51735	-0.062281	0.14008	0.30151	-0.19324	0.086684	0.30868	-0.18551	0.10865	0.25743	-0.18678	0.10097	0.10247	-0.18668	0.13273	0.10047	-0.10115	0.036958	0.048929	-0.12344	0.26456	0.064397	-0.16596	0.1644	0.023874	-0.23117	0.21137	0.74044	0.19398	0.13273	0.74505	0.18127	0.16892	0.69653	0.19084	0.18462	0.54139	0.17413	0.1969	0.51918	0.066449	0.13093	0.34106	0.19863	0.071938	0.34351	0.18088	0.099681	0.29497	0.18828	0.094387	0.10468	0.17945	0.13762	0.10969	0.099212	0.035511	0.055166	0.1178	0.26248	0.064161	0.16968	0.14612	0.034965	0.22495	0.48795	0.032145	-0.61969	-0.46299	0.021571	0.62725	0.51429	0.040648	0.61597	0	0	0	0	0	0	0	0	0	0	0	0
599	2.995	0.34632	1.6879	-0.10337	0.37571	1.6902	0.031793	0.19217	1.6817	-0.082854	0.24033	1.6898	0.068881	0.15891	1.5725	-0.026993	0.28746	1.4357	-0.0055572	0.19697	1.4873	-0.22376	0.19957	1.3218	-0.27548	0.24784	1.1485	-0.28579	0.28198	1.0093	-0.25969	0.29348	0.87343	-0.19225	0.2493	0.86486	-0.25448	0.30647	0.8134	-0.2287	0.17122	1.488	0.20316	0.18665	1.2392	0.26467	0.21385	1.1582	0.27761	0.24792	1.004	0.27161	0.28029	0.88401	0.20477	0.23849	0.86836	0.26515	0.28639	0.82978	0.25561	0.29424	1.0358	-0.12051	0.27165	1.0474	0.13746	0.078536	1.0628	0.027843	0.087859	1.0623	-0.044853	0.19586	0.64116	-0.17928	0.13455	0.64549	-0.17134	0.16493	0.60321	-0.17843	0.18844	0.52922	-0.16864	0.19966	0.51736	-0.062268	0.13995	0.3015	-0.19322	0.086474	0.30836	-0.18494	0.10852	0.25741	-0.18683	0.10094	0.10243	-0.18668	0.13268	0.10046	-0.10114	0.036943	0.048922	-0.12344	0.26457	0.064422	-0.16595	0.16443	0.023812	-0.23114	0.21107	0.74051	0.19401	0.13291	0.74515	0.18138	0.1687	0.69654	0.19085	0.18444	0.54142	0.17415	0.19671	0.51919	0.066497	0.1308	0.34105	0.19867	0.071825	0.34347	0.18088	0.099582	0.29497	0.18832	0.094371	0.10465	0.17944	0.13762	0.10968	0.099224	0.035522	0.055131	0.11782	0.26248	0.06416	0.16968	0.14614	0.034937	0.22502	0.48796	0.032061	-0.61977	-0.46294	0.02169	0.62741	0.51433	0.04065	0.61594	0	0	0	0	0	0	0	0	0	0	0	0
600	3	0.34595	1.6879	-0.10328	0.37535	1.6902	0.031855	0.19183	1.6817	-0.082799	0.23995	1.6899	0.06894	0.1585	1.5725	-0.026953	0.28712	1.4357	-0.0055116	0.19665	1.4873	-0.22371	0.19921	1.3219	-0.27544	0.2475	1.1485	-0.28574	0.28163	1.0094	-0.25964	0.29316	0.87346	-0.19221	0.249	0.86488	-0.25445	0.30615	0.81342	-0.2287	0.17086	1.488	0.20323	0.18628	1.2392	0.2647	0.21349	1.1582	0.27765	0.2476	1.004	0.27165	0.28001	0.88403	0.20482	0.2382	0.86837	0.26517	0.28608	0.82978	0.25566	0.29391	1.0358	-0.12047	0.27134	1.0474	0.13749	0.078198	1.0628	0.027899	0.087504	1.0623	-0.044771	0.19562	0.64118	-0.17924	0.13442	0.6454	-0.17117	0.1647	0.60323	-0.17839	0.18822	0.52922	-0.1686	0.19942	0.51735	-0.062235	0.13984	0.30149	-0.19323	0.086233	0.30819	-0.18486	0.10841	0.25739	-0.18679	0.10091	0.10243	-0.18667	0.13266	0.10046	-0.10116	0.036898	0.048918	-0.12344	0.26455	0.064426	-0.16595	0.16437	0.023863	-0.23122	0.2109	0.74051	0.19402	0.13273	0.74514	0.1814	0.16843	0.69653	0.19088	0.18425	0.54142	0.17418	0.19656	0.51918	0.066515	0.13062	0.34106	0.19867	0.07171	0.34346	0.18088	0.09938	0.29492	0.18864	0.094374	0.10464	0.17949	0.13758	0.10968	0.099222	0.035511	0.055146	0.11782	0.26246	0.064154	0.16967	0.14615	0.034959	0.22501	0.48799	0.032056	-0.6197	-0.46288	0.021697	0.62738	0.51434	0.04075	0.61597	0	0	0	0	0	0	0	0	0	0	0	0
601	3.005	0.3456	1.688	-0.1032	0.37498	1.6902	0.031942	0.19145	1.6817	-0.082789	0.23958	1.6899	0.069005	0.15816	1.5725	-0.026899	0.28675	1.4357	-0.0054646	0.19628	1.4873	-0.22365	0.19889	1.3218	-0.27538	0.24715	1.1485	-0.28572	0.28132	1.0094	-0.25959	0.29283	0.87349	-0.19218	0.24868	0.86489	-0.2544	0.30586	0.81345	-0.22866	0.17048	1.488	0.20326	0.18591	1.2392	0.26472	0.21313	1.1582	0.27769	0.24728	1.004	0.27169	0.27972	0.88406	0.20486	0.23792	0.86839	0.26523	0.28579	0.82981	0.25569	0.29361	1.0358	-0.12042	0.27103	1.0474	0.13754	0.077776	1.0628	0.027964	0.087151	1.0623	-0.044759	0.19532	0.64122	-0.17919	0.13401	0.64552	-0.17133	0.16443	0.60323	-0.17837	0.18792	0.52926	-0.16858	0.19921	0.51737	-0.062202	0.13972	0.3015	-0.1932	0.086051	0.3082	-0.18498	0.10832	0.25736	-0.18679	0.10089	0.10242	-0.18667	0.13265	0.10044	-0.10116	0.036905	0.048888	-0.12344	0.26452	0.064419	-0.16595	0.16436	0.023905	-0.23119	0.21062	0.7405	0.19407	0.13243	0.74511	0.18143	0.16816	0.69653	0.19092	0.18406	0.54143	0.1742	0.19633	0.51921	0.06655	0.13049	0.34106	0.19869	0.071585	0.34343	0.1809	0.099273	0.29487	0.18866	0.094318	0.10461	0.17946	0.13757	0.10969	0.099223	0.035525	0.055111	0.11783	0.26245	0.064173	0.16967	0.14614	0.034944	0.22496	0.48797	0.032171	-0.61967	-0.46301	0.021561	0.62725	0.51433	0.04068	0.61598	0	0	0	0	0	0	0	0	0	0	0	0
602	3.01	0.34524	1.688	-0.10314	0.37459	1.6903	0.032	0.19108	1.6818	-0.082701	0.2392	1.6899	0.069055	0.1578	1.5726	-0.026833	0.28638	1.4357	-0.0054111	0.1959	1.4873	-0.2236	0.19853	1.3219	-0.27534	0.24682	1.1485	-0.28566	0.28099	1.0094	-0.25954	0.29253	0.87351	-0.19213	0.24835	0.86491	-0.25436	0.30553	0.81347	-0.22863	0.17013	1.488	0.20331	0.18556	1.2392	0.2648	0.2128	1.1582	0.27774	0.24693	1.004	0.27175	0.27941	0.88407	0.20491	0.23763	0.86842	0.26528	0.28546	0.82983	0.25574	0.29327	1.0359	-0.1204	0.27069	1.0474	0.13758	0.077439	1.0628	0.028038	0.086805	1.0623	-0.044719	0.19506	0.64123	-0.17915	0.1339	0.64539	-0.17111	0.1642	0.60323	-0.17832	0.18768	0.52925	-0.16854	0.19897	0.51737	-0.062158	0.13958	0.30151	-0.19321	0.085904	0.30819	-0.18503	0.10818	0.25736	-0.18679	0.10084	0.10241	-0.18667	0.13263	0.10044	-0.10115	0.036903	0.04888	-0.12344	0.26454	0.064435	-0.16593	0.16444	0.023802	-0.23113	0.21038	0.7405	0.19414	0.13205	0.74513	0.18138	0.16795	0.69654	0.19092	0.18388	0.54142	0.17422	0.19613	0.51924	0.066612	0.13039	0.34105	0.19871	0.071466	0.34337	0.18091	0.099192	0.29486	0.18869	0.094335	0.1046	0.17947	0.13757	0.10968	0.09922	0.035502	0.05512	0.11783	0.26244	0.064156	0.16966	0.14611	0.034909	0.22501	0.488	0.032081	-0.61976	-0.46296	0.021708	0.62739	0.51429	0.040656	0.61596	0	0	0	0	0	0	0	0	0	0	0	0
603	3.015	0.34488	1.688	-0.10306	0.37421	1.6903	0.032081	0.19071	1.6818	-0.082606	0.23884	1.6899	0.069131	0.15744	1.5726	-0.026765	0.28602	1.4357	-0.0053645	0.19557	1.4874	-0.22356	0.19818	1.3219	-0.2753	0.2465	1.1486	-0.28563	0.28069	1.0094	-0.25948	0.29218	0.87353	-0.1921	0.24818	0.86493	-0.25446	0.30523	0.8135	-0.22857	0.16975	1.488	0.20336	0.18524	1.2392	0.26485	0.21246	1.1582	0.27779	0.24662	1.004	0.27179	0.27911	0.8841	0.20496	0.23731	0.86845	0.26531	0.28514	0.82984	0.25579	0.29291	1.0359	-0.12037	0.27037	1.0475	0.13762	0.077133	1.0628	0.028055	0.086541	1.0623	-0.044694	0.19477	0.64124	-0.17912	0.13336	0.64554	-0.17135	0.16391	0.60323	-0.1783	0.18744	0.52928	-0.16853	0.19876	0.51738	-0.06214	0.13944	0.3015	-0.19319	0.085777	0.30815	-0.18498	0.10804	0.25733	-0.18676	0.10086	0.10237	-0.18666	0.13264	0.10044	-0.10115	0.036872	0.04887	-0.12345	0.26452	0.064443	-0.16595	0.16441	0.023892	-0.23123	0.21004	0.74055	0.19418	0.1318	0.74512	0.18142	0.16772	0.69656	0.19093	0.18367	0.54142	0.17426	0.19592	0.51926	0.066601	0.13025	0.34103	0.19873	0.071312	0.34325	0.18093	0.099068	0.29483	0.1887	0.094282	0.1046	0.17948	0.13752	0.10965	0.099246	0.035506	0.055096	0.11785	0.26242	0.064159	0.16965	0.14613	0.034933	0.22496	0.48799	0.032134	-0.61966	-0.46289	0.021702	0.62736	0.51435	0.040741	0.61596	0	0	0	0	0	0	0	0	0	0	0	0
604	3.02	0.34449	1.6881	-0.10302	0.37386	1.6903	0.032134	0.19035	1.6818	-0.082547	0.23845	1.6899	0.069206	0.15709	1.5726	-0.026738	0.28566	1.4357	-0.0053174	0.19521	1.4874	-0.22352	0.19784	1.3219	-0.27525	0.24616	1.1486	-0.28558	0.28033	1.0094	-0.25946	0.29189	0.87356	-0.19205	0.24774	0.86495	-0.25426	0.3049	0.81353	-0.22854	0.16939	1.488	0.20338	0.18492	1.2392	0.26492	0.21211	1.1582	0.27786	0.24631	1.004	0.27184	0.27881	0.8841	0.20502	0.237	0.86844	0.26534	0.28485	0.82985	0.25583	0.29255	1.0359	-0.12033	0.27001	1.0475	0.13765	0.076844	1.0627	0.028129	0.086227	1.0623	-0.044653	0.19447	0.64126	-0.17906	0.13303	0.64549	-0.17133	0.16363	0.60324	-0.17824	0.1872	0.52929	-0.16849	0.19849	0.5174	-0.062102	0.13931	0.30147	-0.19316	0.085623	0.30812	-0.1849	0.1079	0.2573	-0.18674	0.10081	0.10236	-0.18669	0.1326	0.10043	-0.10116	0.036864	0.048854	-0.12344	0.2645	0.064438	-0.16596	0.16438	0.023779	-0.23117	0.2098	0.74056	0.19416	0.13097	0.74507	0.18133	0.16746	0.69655	0.19099	0.18348	0.54143	0.17429	0.19573	0.51926	0.066649	0.13015	0.34091	0.19882	0.071183	0.34319	0.18091	0.099079	0.29478	0.18863	0.094274	0.10458	0.17945	0.13755	0.10968	0.099248	0.035467	0.055078	0.11782	0.26242	0.064154	0.16964	0.1461	0.034898	0.22499	0.48798	0.032109	-0.61971	-0.46294	0.021687	0.62739	0.51415	0.040526	0.61598	0	0	0	0	0	0	0	0	0	0	0	0
